<?xml version="1.0" encoding="utf-8"?>
<!-- Generator: Adobe Illustrator 26.2.1, SVG Export Plug-In . SVG Version: 6.00 Build 0)  -->
<svg version="1.1" id="Layer_1" xmlns="http://www.w3.org/2000/svg" xmlns:xlink="http://www.w3.org/1999/xlink" x="0px" y="0px"
	 viewBox="0 0 435.2 435.2" style="enable-background:new 0 0 435.2 435.2;" xml:space="preserve">
<style type="text/css">
	.st0{fill:#198838;}
	.st1{fill:#323842;}
	.st2{fill:#D8D8D8;}
	.st3{fill:#DCDEE2;}
	.st4{fill:#454B53;}
</style>
<rect class="st0" width="435.2" height="435.2"/>
<path class="st1" d="M264.1,76.5h-89.7c-12.8,0-23.2,6.5-23.2,19.3v246.7c0,12.8,10.4,19.3,23.2,19.3h89.7
	c12.8,0,23.2-6.5,23.2-19.3V95.8C287.2,83,276.8,76.5,264.1,76.5z"/>
<g>
	<path class="st2" d="M264.7,73.4h-3.5h-7.4h-3.5c-0.8,0-1.4,0.8-1.4,1.7v1.4h3.5h10.2h3.5v-1.4C266.2,74.2,265.5,73.4,264.7,73.4z"
		/>
	<path class="st2" d="M148,135.2v10.9c0,0.8,0.8,1.4,1.7,1.4h1.4v-13.8h-1.4C148.8,133.8,148,134.4,148,135.2z"/>
	<path class="st2" d="M148,108.4v5.5v5.4v5.5c0,0.8,0.8,1.4,1.7,1.4h1.4v-5.5v-8.2V107h-1.4C148.8,107,148,107.6,148,108.4z"/>
	<path class="st2" d="M148,155.8v10.9c0,0.8,0.8,1.4,1.7,1.4h1.4v-13.8h-1.4C148.8,154.4,148,155,148,155.8z"/>
</g>
<rect x="158.4" y="107" class="st3" width="121.6" height="221.2"/>
<g>
	<circle class="st4" cx="219.7" cy="87.9" r="3.4"/>
	<path class="st4" d="M233.2,94.5h-28c-1.4,0-2.5,1.1-2.5,2.5c0,1.4,1.1,2.5,2.5,2.5h28c1.4,0,2.5-1.1,2.5-2.5
		C235.7,95.7,234.6,94.5,233.2,94.5z"/>
	<path class="st4" d="M219.2,341.9c-2.2,0-4,1.8-4,4s1.8,4,4,4c2.2,0,4-1.8,4-4C223.2,343.7,221.4,341.9,219.2,341.9z"/>
	<path class="st4" d="M219.2,336.3c-5.3,0-9.5,4.3-9.5,9.5c0,5.3,4.3,9.5,9.5,9.5s9.5-4.3,9.5-9.5
		C228.7,340.6,224.4,336.3,219.2,336.3z M219.2,350.5c-2.6,0-4.7-2.1-4.7-4.7s2.1-4.7,4.7-4.7c2.6,0,4.7,2.1,4.7,4.7
		S221.8,350.5,219.2,350.5z"/>
</g>
</svg>
