<?xml version="1.0" encoding="utf-8"?>
<!-- Generator: Adobe Illustrator 26.2.1, SVG Export Plug-In . SVG Version: 6.00 Build 0)  -->
<svg version="1.1" id="Layer_1" xmlns="http://www.w3.org/2000/svg" xmlns:xlink="http://www.w3.org/1999/xlink" x="0px" y="0px"
	 viewBox="0 0 435.2 435.2" style="enable-background:new 0 0 435.2 435.2;" xml:space="preserve">
<style type="text/css">
	.st0{fill:#094A72;}
	.st1{fill:#554D43;}
	.st2{fill:#824142;}
	.st3{fill:#203685;}
</style>
<g id="_x38_">
	<path d="M248.4,229.5h-1.1v-1.7c0-1.2-1-2.2-2.2-2.2h-3l-0.6-29.5c2-0.8,3.5-2.8,3.5-5.1c0-3-2.4-5.4-5.4-5.4c-3,0-5.4,2.4-5.4,5.4
		c0,2.3,1.4,4.3,3.5,5.1l-0.6,29.5h-3c-1.2,0-2.2,1-2.2,2.2v1.7h-1.1c-1.2,0-2.2,1-2.2,2.2v1.9h22.3v-1.9
		C250.7,230.5,249.7,229.5,248.4,229.5z"/>
	<g>
		<path class="st0" d="M214.7,173.3c-7,11-6.6,24.6,0,34.9l5.2-3.3c-5.3-8.4-5.7-19.4,0-28.3L214.7,173.3z"/>
		<path class="st0" d="M225.3,180.1c-4.3,6.7-4,15,0,21.3l5.1-3.3c-2.8-4.4-3-10.2,0-14.8L225.3,180.1z"/>
		<path class="st0" d="M264.2,173.3l-5.2,3.3c5.7,8.9,5.3,20,0,28.3l5.2,3.3C270.7,198,271.2,184.3,264.2,173.3z"/>
		<path class="st0" d="M248.4,183.4c3,4.7,2.8,10.5,0,14.8l5.1,3.3c4-6.3,4.3-14.6,0-21.3L248.4,183.4z"/>
	</g>
	<path d="M268.7,249.1c0,7-5.7,12.7-12.7,12.7h-74c-7,0-12.7-5.7-12.7-12.7c0-7,5.7-12.7,12.7-12.7h74
		C263,236.4,268.7,242.1,268.7,249.1z"/>
	<path class="st1" d="M184.8,249.3c0-2.4-2-4.4-4.4-4.4c-2.4,0-4.4,2-4.4,4.4c0,2.4,2,4.4,4.4,4.4
		C182.9,253.7,184.8,251.8,184.8,249.3z"/>
	<path class="st2" d="M197.2,249.3c0-2.4-2-4.4-4.4-4.4c-2.4,0-4.4,2-4.4,4.4c0,2.4,2,4.4,4.4,4.4
		C195.2,253.7,197.2,251.8,197.2,249.3z"/>
	<path class="st3" d="M209.6,249.3c0-2.4-2-4.4-4.4-4.4c-2.4,0-4.4,2-4.4,4.4c0,2.4,2,4.4,4.4,4.4
		C207.6,253.7,209.6,251.8,209.6,249.3z"/>
</g>
</svg>
