<?xml version="1.0" encoding="utf-8"?>
<!-- Generator: Adobe Illustrator 26.5.0, SVG Export Plug-In . SVG Version: 6.00 Build 0)  -->
<svg version="1.1" id="Layer_1" xmlns="http://www.w3.org/2000/svg" xmlns:xlink="http://www.w3.org/1999/xlink" x="0px" y="0px"
	 viewBox="0 0 435.2 435.2" style="enable-background:new 0 0 435.2 435.2;" xml:space="preserve">
<style type="text/css">
	.st0{fill:#0078F2;}
	.st1{fill:#8DBEFF;}
</style>
<g id="Layer_30">
</g>
<path class="st0" d="M258.7,214.9v-49.5c0-2.7-2.2-4.9-4.9-4.9c-2.7,0-4.9,2.2-4.9,4.9v49.5h-62.7v-22.5c0-2.7-2.2-4.9-4.9-4.9
	c-2.7,0-4.9,2.2-4.9,4.9v22.5c-6.6,0.3-11.7,5.8-11.8,12.4v29.6c0,6.6,5.2,12,11.8,12.4v0.6c0,2.7,2.2,4.9,4.9,4.9
	c2.7,0,4.9-2.2,4.9-4.9v-0.6H249v0.6c0,2.7,2.2,4.9,4.9,4.9c2.7,0,4.9-2.2,4.9-4.9v-0.6c6.6-0.3,11.7-5.8,11.8-12.4v-29.6
	C270.5,220.7,265.3,215.3,258.7,214.9z"/>
<path class="st1" d="M242.8,246.9H212c-2.7,0-4.9-2.2-4.9-4.9s2.2-4.9,4.9-4.9h30.8c2.7,0,4.9,2.2,4.9,4.9S245.5,246.9,242.8,246.9z
	"/>
<path class="st1" d="M190.6,246.9h-0.6c-2.7,0-4.9-2.2-4.9-4.9s2.2-4.9,4.9-4.9h0.6c2.7,0,4.9,2.2,4.9,4.9S193.2,246.9,190.6,246.9z
	"/>
<path class="st0" d="M217.6,192.3c-5.3,0-10.3,2.6-13.3,7.1c-1.5,2.2-1,5.3,1.3,6.8c0.8,0.5,1.8,0.8,2.8,0.8c1.6,0,3.1-0.8,4-2.1
	c2-2.9,5.9-3.7,8.8-1.7c0.7,0.4,1.2,1,1.7,1.7c0.9,1.3,2.4,2.1,4,2.1c1,0,1.9-0.3,2.8-0.8c2.2-1.5,2.8-4.6,1.3-6.8
	C227.9,194.9,222.9,192.3,217.6,192.3z"/>
<path class="st0" d="M242.6,189.6c-9.4-13.8-28.2-17.4-42-8c-3.1,2.1-5.8,4.8-8,8c-1.5,2.2-1,5.3,1.3,6.8c0.8,0.6,1.8,0.9,2.8,0.9
	c1.6,0,3.1-0.8,4-2.1c6.4-9.3,19.1-11.8,28.4-5.4c2.1,1.4,4,3.3,5.4,5.4c1.5,2.2,4.5,2.8,6.8,1.4C243.5,195,244.1,192,242.6,189.6
	C242.6,189.7,242.6,189.7,242.6,189.6z"/>
</svg>
