<?xml version="1.0" encoding="utf-8"?>
<!-- Generator: Adobe Illustrator 26.5.0, SVG Export Plug-In . SVG Version: 6.00 Build 0)  -->
<svg version="1.1" id="Layer_1" xmlns="http://www.w3.org/2000/svg" xmlns:xlink="http://www.w3.org/1999/xlink" x="0px" y="0px"
	 viewBox="0 0 435.2 435.2" style="enable-background:new 0 0 435.2 435.2;" xml:space="preserve">
<style type="text/css">
	.st0{fill:#1A4B5F;}
	.st1{fill:#4391B2;}
	.st2{fill:#48B1DD;}
	.st3{fill:#96CEE5;}
</style>
<rect class="st0" width="435.2" height="435.2"/>
<g id="Layer_29">
	<g>
		<g>
			<path class="st1" d="M217.6,130.7c-5.3,0-9.6-4.3-9.6-9.6V83.4c0-5.3,4.3-9.6,9.6-9.6s9.6,4.3,9.6,9.6v37.7
				C227.2,126.4,222.9,130.7,217.6,130.7z"/>
		</g>
		<g>
			<path class="st1" d="M169.5,131.1c-5.3,0-9.6-4.3-9.6-9.6V83c0-5.3,4.3-9.6,9.6-9.6s9.6,4.3,9.6,9.6v38.5
				C179.1,126.8,174.8,131.1,169.5,131.1z"/>
		</g>
		<g>
			<path class="st1" d="M265.7,131.1c-5.3,0-9.6-4.3-9.6-9.6V83c0-5.3,4.3-9.6,9.6-9.6c5.3,0,9.6,4.3,9.6,9.6v38.5
				C275.3,126.8,271,131.1,265.7,131.1z"/>
		</g>
		<g>
			<path class="st1" d="M217.6,361.4c-5.3,0-9.6-4.3-9.6-9.6v-37.7c0-5.3,4.3-9.6,9.6-9.6s9.6,4.3,9.6,9.6v37.7
				C227.2,357.1,222.9,361.4,217.6,361.4z"/>
		</g>
		<g>
			<path class="st1" d="M169.5,361.8c-5.3,0-9.6-4.3-9.6-9.6v-38.5c0-5.3,4.3-9.6,9.6-9.6s9.6,4.3,9.6,9.6v38.5
				C179.1,357.5,174.8,361.8,169.5,361.8z"/>
		</g>
		<g>
			<path class="st1" d="M265.7,361.8c-5.3,0-9.6-4.3-9.6-9.6v-38.5c0-5.3,4.3-9.6,9.6-9.6c5.3,0,9.6,4.3,9.6,9.6v38.5
				C275.3,357.5,271,361.8,265.7,361.8z"/>
		</g>
	</g>
	<g>
		<g>
			<path class="st1" d="M121.1,227.2H83.4c-5.3,0-9.6-4.3-9.6-9.6s4.3-9.6,9.6-9.6h37.7c5.3,0,9.6,4.3,9.6,9.6
				S126.4,227.2,121.1,227.2z"/>
		</g>
		<g>
			<path class="st1" d="M121.5,275.3H83c-5.3,0-9.6-4.3-9.6-9.6c0-5.3,4.3-9.6,9.6-9.6h38.5c5.3,0,9.6,4.3,9.6,9.6
				C131.1,271,126.8,275.3,121.5,275.3z"/>
		</g>
		<g>
			<path class="st1" d="M121.5,179.1H83c-5.3,0-9.6-4.3-9.6-9.6s4.3-9.6,9.6-9.6h38.5c5.3,0,9.6,4.3,9.6,9.6
				S126.8,179.1,121.5,179.1z"/>
		</g>
		<g>
			<path class="st1" d="M351.8,227.2h-37.6c-5.3,0-9.6-4.3-9.6-9.6s4.3-9.6,9.6-9.6h37.6c5.3,0,9.6,4.3,9.6,9.6
				S357.1,227.2,351.8,227.2z"/>
		</g>
		<g>
			<path class="st1" d="M352.2,275.3h-38.5c-5.3,0-9.6-4.3-9.6-9.6c0-5.3,4.3-9.6,9.6-9.6h38.5c5.3,0,9.6,4.3,9.6,9.6
				C361.8,271,357.5,275.3,352.2,275.3z"/>
		</g>
		<g>
			<path class="st1" d="M352.2,179.1h-38.5c-5.3,0-9.6-4.3-9.6-9.6s4.3-9.6,9.6-9.6h38.5c5.3,0,9.6,4.3,9.6,9.6
				S357.5,179.1,352.2,179.1z"/>
		</g>
	</g>
	<g>
		<path class="st2" d="M323.3,121.5v192.3c0,5.3-4.3,9.6-9.6,9.6H121.5c-5.3,0-9.6-4.3-9.6-9.6V121.5c0-5.3,4.3-9.6,9.6-9.6h192.3
			C319,111.9,323.3,116.2,323.3,121.5z"/>
	</g>
	<g>
		<path class="st3" d="M284.9,179.1v76.9c0,15.9-13,28.8-28.8,28.8h-76.9c-15.9,0-28.8-13-28.8-28.8v-76.9c0-15.9,13-28.8,28.8-28.8
			h76.9C271.9,150.3,284.9,163.3,284.9,179.1z"/>
	</g>
</g>
<g id="Layer_30">
</g>
</svg>
